<svg xmlns="http://www.w3.org/2000/svg" width="632" height="593" fill="none" viewBox="0 0 632 593"><path fill="#fff" fill-opacity=".05" d="M378.04 995.63c50.69-48.1 50.92-51.63 9.15-95.5-30.74-32.15-34.96-40.13-37.3-68.76-2.59-32.14 5.16-48.8 38-82.6 38.49-39.65 38.49-46.69 1.65-82.82-17.36-17.13-25.1-26.52-31.2-38.48-7.52-15.25-7.99-17.6-7.99-39.9 0-19 .94-25.34 4.7-32.84 9.15-18.07 18.77-30.5 35.9-46.46 33.79-31.68 34.26-43.18 3.05-75.32-31.44-32.15-36.84-36.37-49.51-36.37s-18.07 4.22-49.51 36.37c-31.91 32.85-30.98 42.23 6.8 79.07 15.72 15.49 23 24.64 29.8 38.01 8.68 17.13 8.68 17.6 7.75 39.42-1.41 31.21-7.51 42.71-39.66 76.03-37.07 38.48-37.07 43.17 1.64 83.3 32.62 33.79 40.36 50.45 37.78 82.6-2.35 28.62-6.57 36.6-37.3 68.75-41.78 43.87-41.54 47.4 9.14 95.5 21.36 20.17 22.06 20.41 33.56 20.41s12.2-.24 33.55-20.41M378.04 293.51c50.69-48.1 50.92-51.62 9.15-95.5-30.74-32.14-34.96-40.12-37.3-68.75-2.59-32.14 5.16-48.8 38-82.6 38.49-39.65 38.49-46.69 1.65-82.82-17.36-17.13-25.1-26.52-31.2-38.48-7.52-15.26-7.99-17.6-7.99-39.9 0-19 .94-25.34 4.7-32.84 9.15-18.07 18.77-30.5 35.9-46.46 33.79-31.68 34.26-43.18 3.05-75.33-31.44-32.14-36.84-36.37-49.51-36.37s-18.07 4.23-49.51 36.37c-31.91 32.85-30.98 42.24 6.8 79.08 15.72 15.49 23 24.64 29.8 38.01 8.68 17.13 8.68 17.6 7.75 39.42-1.41 31.21-7.51 42.7-39.66 76.03-37.07 38.48-37.07 43.17 1.64 83.3 32.62 33.79 40.36 50.45 37.78 82.6-2.35 28.62-6.57 36.6-37.3 68.74-41.78 43.88-41.54 47.4 9.14 95.5 21.36 20.18 22.06 20.42 33.56 20.42s12.2-.24 33.55-20.42M649.64 995.63c50.68-48.1 50.92-51.63 9.15-95.5-30.74-32.15-34.96-40.13-37.3-68.76-2.59-32.14 5.15-48.8 38-82.6 38.49-39.65 38.49-46.69 1.65-82.82-17.37-17.13-25.1-26.52-31.21-38.48-7.5-15.25-7.98-17.6-7.98-39.9 0-19 .94-25.34 4.7-32.84 9.15-18.07 18.77-30.5 35.9-46.46 33.79-31.68 34.25-43.18 3.05-75.32-31.45-32.15-36.84-36.37-49.51-36.37s-18.07 4.22-49.51 36.37c-31.92 32.85-30.98 42.23 6.8 79.07 15.72 15.49 23 24.64 29.8 38.01 8.68 17.13 8.68 17.6 7.74 39.42-1.4 31.21-7.5 42.71-39.65 76.03-37.07 38.48-37.07 43.17 1.64 83.3 32.62 33.79 40.36 50.45 37.78 82.6-2.35 28.62-6.57 36.6-37.3 68.75-41.78 43.87-41.54 47.4 9.14 95.5 21.36 20.17 22.06 20.41 33.56 20.41s12.2-.24 33.55-20.41M106.44 995.63c50.69-48.1 50.92-51.63 9.15-95.5-30.73-32.15-34.96-40.13-37.3-68.76-2.59-32.14 5.16-48.8 38-82.6 38.49-39.65 38.49-46.69 1.65-82.82-17.36-17.13-25.1-26.52-31.2-38.48-7.52-15.25-7.98-17.6-7.98-39.9 0-19 .93-25.34 4.69-32.84 9.15-18.07 18.77-30.5 35.9-46.46 33.79-31.68 34.26-43.18 3.05-75.32-31.44-32.15-36.84-36.37-49.51-36.37s-18.07 4.22-49.51 36.37c-31.91 32.85-30.97 42.23 6.8 79.07 15.72 15.49 23 24.64 29.8 38.01 8.69 17.13 8.69 17.6 7.75 39.42-1.41 31.21-7.51 42.71-39.66 76.03C-9 703.96-9 708.65 29.71 748.78c32.62 33.79 40.36 50.45 37.78 82.6-2.34 28.62-6.57 36.6-37.3 68.75-41.77 43.87-41.54 47.4 9.14 95.5 21.36 20.17 22.06 20.41 33.56 20.41s12.2-.24 33.55-20.41M649.64 293.51c50.68-48.1 50.92-51.62 9.15-95.5-30.74-32.14-34.96-40.12-37.3-68.75-2.59-32.14 5.15-48.8 38-82.6 38.49-39.65 38.49-46.69 1.65-82.82-17.37-17.13-25.1-26.52-31.21-38.48-7.5-15.26-7.98-17.6-7.98-39.9 0-19 .94-25.34 4.7-32.84 9.15-18.07 18.77-30.5 35.9-46.46 33.79-31.68 34.25-43.18 3.05-75.33-31.45-32.14-36.84-36.37-49.51-36.37s-18.07 4.23-49.51 36.37c-31.92 32.85-30.98 42.24 6.8 79.08 15.72 15.49 23 24.64 29.8 38.01 8.68 17.13 8.68 17.6 7.74 39.42-1.4 31.21-7.5 42.7-39.65 76.03-37.07 38.48-37.07 43.17 1.64 83.3 32.62 33.79 40.36 50.45 37.78 82.6-2.35 28.62-6.57 36.6-37.3 68.74-41.78 43.88-41.54 47.4 9.14 95.5 21.36 20.18 22.06 20.42 33.56 20.42s12.2-.24 33.55-20.42M106.44 293.51c50.69-48.1 50.92-51.62 9.15-95.5-30.73-32.14-34.96-40.12-37.3-68.75-2.59-32.14 5.16-48.8 38-82.6 38.49-39.65 38.49-46.69 1.65-82.82-17.36-17.13-25.1-26.52-31.2-38.48-7.52-15.26-7.99-17.6-7.99-39.9 0-19 .94-25.34 4.7-32.84 9.15-18.07 18.77-30.5 35.9-46.46 33.79-31.68 34.26-43.18 3.05-75.33-31.44-32.14-36.84-36.37-49.51-36.37s-18.07 4.23-49.51 36.38c-31.91 32.85-30.98 42.23 6.8 79.07 15.72 15.49 23 24.64 29.8 38.01 8.68 17.13 8.68 17.6 7.75 39.42-1.41 31.21-7.51 42.7-39.66 76.03C-9 1.85-9 6.54 29.71 46.67c32.62 33.79 40.36 50.45 37.78 82.6-2.35 28.62-6.57 36.6-37.3 68.74-41.77 43.88-41.54 47.4 9.14 95.5C60.7 313.7 61.4 313.93 72.9 313.93s12.2-.24 33.55-20.42"/><path fill="#fff" fill-opacity=".05" d="M242.24 877.16c50.69-48.1 50.92-51.62 9.15-95.5-30.73-32.15-34.96-40.12-37.3-68.75-2.59-32.15 5.16-48.8 38-82.6 38.49-39.65 38.49-46.69 1.65-82.83-17.36-17.12-25.1-26.51-31.2-38.48-7.52-15.25-7.99-17.6-7.99-39.89 0-19 .94-25.34 4.7-32.85 9.15-18.06 18.77-30.5 35.9-46.46 33.79-31.68 34.26-43.17 3.05-75.32-31.44-32.15-36.84-36.37-49.51-36.37s-18.07 4.22-49.51 36.37c-31.91 32.85-30.97 42.24 6.8 79.08 15.72 15.48 23 24.63 29.8 38 8.68 17.14 8.68 17.6 7.75 39.43-1.41 31.2-7.51 42.7-39.66 76.02-37.07 38.49-37.07 43.18 1.64 83.3 32.62 33.8 40.36 50.45 37.78 82.6-2.34 28.63-6.57 36.6-37.3 68.75-41.77 43.88-41.54 47.4 9.14 95.5 21.36 20.18 22.06 20.42 33.56 20.42s12.2-.24 33.55-20.42M242.24 175.05c50.69-48.1 50.92-51.62 9.15-95.5-30.73-32.15-34.96-40.13-37.3-68.75-2.59-32.15 5.16-48.8 38-82.6 38.49-39.65 38.49-46.7 1.65-82.83-17.36-17.13-25.1-26.51-31.2-38.48-7.52-15.25-7.99-17.6-7.99-39.89 0-19 .94-25.34 4.7-32.85 9.15-18.07 18.77-30.5 35.9-46.46 33.79-31.68 34.26-43.17 3.05-75.32-31.44-32.15-36.84-36.37-49.51-36.37s-18.07 4.22-49.51 36.37c-31.91 32.85-30.97 42.24 6.8 79.08 15.72 15.48 23 24.63 29.8 38 8.68 17.14 8.68 17.6 7.75 39.43-1.41 31.2-7.51 42.7-39.66 76.02-37.07 38.49-37.07 43.18 1.64 83.3 32.62 33.8 40.36 50.45 37.78 82.6-2.34 28.62-6.57 36.6-37.3 68.75-41.77 43.88-41.54 47.4 9.14 95.5 21.36 20.18 22.06 20.41 33.56 20.41s12.2-.23 33.55-20.41M513.84 877.16c50.68-48.1 50.92-51.62 9.15-95.5-30.74-32.15-34.96-40.12-37.3-68.75-2.59-32.15 5.16-48.8 38-82.6 38.49-39.65 38.49-46.69 1.65-82.83-17.37-17.12-25.1-26.51-31.2-38.48-7.52-15.25-7.99-17.6-7.99-39.89 0-19 .94-25.34 4.7-32.85 9.15-18.06 18.77-30.5 35.9-46.46 33.79-31.68 34.25-43.17 3.05-75.32-31.44-32.15-36.84-36.37-49.51-36.37s-18.07 4.22-49.51 36.37c-31.91 32.85-30.98 42.24 6.8 79.08 15.72 15.48 23 24.63 29.8 38 8.68 17.14 8.68 17.6 7.75 39.43-1.41 31.2-7.51 42.7-39.66 76.02-37.07 38.49-37.07 43.18 1.64 83.3 32.62 33.8 40.36 50.45 37.78 82.6-2.35 28.63-6.57 36.6-37.3 68.75-41.77 43.88-41.54 47.4 9.14 95.5 21.36 20.18 22.06 20.42 33.56 20.42s12.2-.24 33.55-20.42M513.84 175.05c50.68-48.1 50.92-51.62 9.15-95.5-30.74-32.15-34.96-40.13-37.3-68.75-2.59-32.15 5.16-48.8 38-82.6 38.49-39.65 38.49-46.7 1.65-82.83-17.37-17.13-25.1-26.51-31.2-38.48-7.52-15.25-7.99-17.6-7.99-39.89 0-19 .94-25.34 4.7-32.85 9.15-18.07 18.77-30.5 35.9-46.46 33.78-31.68 34.25-43.17 3.05-75.32-31.45-32.15-36.84-36.37-49.51-36.37s-18.07 4.22-49.51 36.37c-31.91 32.85-30.98 42.24 6.8 79.08 15.72 15.48 23 24.63 29.8 38 8.68 17.14 8.68 17.6 7.74 39.43-1.4 31.2-7.5 42.7-39.65 76.02-37.08 38.49-37.08 43.18 1.64 83.3 32.62 33.8 40.36 50.45 37.78 82.6-2.35 28.62-6.57 36.6-37.3 68.75-41.78 43.88-41.54 47.4 9.14 95.5 21.35 20.18 22.06 20.41 33.56 20.41s12.2-.23 33.55-20.41"/></svg>